<?xml version="1.0" encoding="iso-8859-1"?>
<!-- Generator: Adobe Illustrator 18.1.1, SVG Export Plug-In . SVG Version: 6.00 Build 0)  -->
<svg version="1.1" id="Capa_1" xmlns="http://www.w3.org/2000/svg" xmlns:xlink="http://www.w3.org/1999/xlink" x="0px" y="0px"
	 viewBox="0 0 292.855 292.855" style="enable-background:new 0 0 292.855 292.855;" xml:space="preserve">
<g>
	<g>
		<path style="fill:#010002;" d="M282.608,182.793h-23.812V145.4c0-0.06-0.016-0.12-0.016-0.185s0.016-0.12,0.016-0.179
			c0-5.651-4.585-10.236-10.236-10.236h-91.898v-24.742h23.807c5.657,0,10.242-4.585,10.242-10.236V31.723
			c0-5.651-4.585-10.231-10.242-10.231h-68.097c-5.651,0-10.231,4.58-10.231,10.231V99.82c0,5.651,4.58,10.236,10.231,10.236h23.818
			v24.742H44.285c-5.657,0-10.236,4.585-10.236,10.236v37.758H10.236C4.58,182.793,0,187.378,0,193.03v68.097
			c0,5.651,4.58,10.236,10.236,10.236h68.092c5.657,0,10.242-4.585,10.242-10.236V193.03c0-5.651-4.585-10.236-10.242-10.236H54.521
			v-27.527h81.673v27.527h-23.818c-5.651,0-10.231,4.585-10.231,10.236v68.097c0,5.651,4.58,10.236,10.231,10.236h68.097
			c5.657,0,10.242-4.585,10.242-10.236V193.03c0-5.651-4.585-10.236-10.242-10.236h-23.807v-27.527h81.673v27.527h-23.818
			c-5.651,0-10.231,4.585-10.231,10.236v68.097c0,5.651,4.58,10.236,10.231,10.236h68.097c5.651,0,10.236-4.585,10.236-10.236
			V193.03C292.845,187.373,288.26,182.793,282.608,182.793z M122.613,41.96h47.624v47.624h-47.624V41.96z M68.097,250.885H20.473
			v-47.624h47.624V250.885z M170.237,250.885h-47.624v-47.624h47.624V250.885z M272.372,250.885h-47.619v-47.624h47.624v47.624
			H272.372z"/>
	</g>
</g>
<g>
</g>
<g>
</g>
<g>
</g>
<g>
</g>
<g>
</g>
<g>
</g>
<g>
</g>
<g>
</g>
<g>
</g>
<g>
</g>
<g>
</g>
<g>
</g>
<g>
</g>
<g>
</g>
<g>
</g>
</svg>
